<svg width="243" height="66" viewBox="0 0 243 66" fill="none" xmlns="http://www.w3.org/2000/svg">
<path d="M31.0918 17.6172L15.1543 55H4.72461L20.6914 19.9609H0.359375V12.3438H31.0918V17.6172ZM65.8086 37.5684C65.8086 43.3301 64.5098 47.7734 61.9121 50.8984C59.334 54.0234 55.6914 55.5859 50.9844 55.5859C46.2383 55.5859 42.5664 54.0137 39.9688 50.8691C37.3711 47.7246 36.0723 43.291 36.0723 37.5684V29.7754C36.0723 24.0137 37.3613 19.5703 39.9395 16.4453C42.5371 13.3203 46.1992 11.7578 50.9258 11.7578C55.6523 11.7578 59.3145 13.3301 61.9121 16.4746C64.5098 19.6191 65.8086 24.0625 65.8086 29.8047V37.5684ZM55.9355 28.5156C55.9355 25.4492 55.5352 23.1641 54.7344 21.6602C53.9336 20.1367 52.6641 19.375 50.9258 19.375C49.2266 19.375 47.9863 20.0781 47.2051 21.4844C46.4434 22.8906 46.0332 25.0195 45.9746 27.8711V38.7695C45.9746 41.9531 46.375 44.2871 47.1758 45.7715C47.9766 47.2363 49.2461 47.9688 50.9844 47.9688C52.6641 47.9688 53.9043 47.2559 54.7051 45.8301C55.5059 44.3848 55.916 42.1289 55.9355 39.0625V28.5156ZM126.395 65.4883H117.166V55H93.9336V65.459H84.4121L83.6797 47.0898H86.6973C88.2793 46.0352 89.5488 44.2285 90.5059 41.6699C91.4824 39.0918 92.1758 35.4004 92.5859 30.5957L93.9043 12.3438H122.938V47.0898H127.479L126.395 65.4883ZM98.3281 47.0898H112.684V20.2832H103.602L102.811 30.9473C102.225 37.8613 100.73 43.2422 98.3281 47.0898ZM166.678 55H156.453V37.1875H141.307V55H131.023V12.3438H141.307V29.2773H156.453V12.3438H166.678V55ZM199.666 36.9238H183.494V47.0898H202.596V55H173.211V12.3438H202.654V20.2832H183.494V29.2773H199.666V36.9238ZM231.805 12.3438H242.088V55H231.805V28.1055L216.482 55H206.199V12.3438H216.482V39.2676L231.805 12.3438ZM235.057 0.859375C235.057 3.53516 234.07 5.70312 232.098 7.36328C230.125 9.02344 227.498 9.85352 224.217 9.85352C220.936 9.85352 218.309 9.02344 216.336 7.36328C214.363 5.70312 213.377 3.53516 213.377 0.859375H220.086C220.086 2.03125 220.447 2.94922 221.17 3.61328C221.912 4.25781 222.928 4.58008 224.217 4.58008C225.506 4.58008 226.502 4.26758 227.205 3.64258C227.928 2.99805 228.289 2.07031 228.289 0.859375H235.057Z" fill="#C4C4C4"/>
</svg>
